<svg width="272" height="272" viewBox="0 0 272 272" fill="none" xmlns="http://www.w3.org/2000/svg">
<path d="M183.316 254.528C129.254 276.327 70.1483 249.279 50.2354 196.879C46.1882 186.229 43.7723 175.214 43.927 163.715C44.048 154.717 43.8035 145.711 44.0548 136.719C44.1715 132.545 42.692 130.957 38.5664 131.303C36.3213 131.491 33.9641 131.663 31.8923 130.874C31.3088 129.208 32.2542 128.418 33.0173 127.555C47.1445 111.579 61.3339 95.6568 75.3415 79.5766C77.8465 76.7009 79.4783 76.5106 82.0037 79.41C95.9014 95.3661 109.916 111.22 123.867 127.13C124.611 127.978 125.146 129.009 125.945 130.205C123.028 132.147 119.987 131.195 117.163 131.289C114.43 131.38 113.105 132.399 113.285 135.173C113.306 135.505 113.273 135.84 113.278 136.173C113.369 142.163 111.614 149.104 114.069 153.881C116.598 158.801 124.516 157.34 129.981 158.989C146.477 163.965 161.619 172.239 177.738 178.107C195.069 184.417 212.173 185.121 229.076 176.656C231.96 175.211 233.594 173.46 233.912 169.89C236.561 140.157 226.72 115.253 205.19 94.8745C195.858 86.0408 184.76 80.1235 172.671 75.7831C167.781 74.0275 164.319 75.3175 160.943 78.5099C153.17 85.86 151.31 98.3183 156.617 107.912C157.581 109.654 158.807 111.252 159.924 112.909C161.883 115.814 161.894 118.589 159.053 120.873C156.126 123.227 153.313 122.285 151.093 119.796C147.739 116.037 145.217 111.743 143.751 106.861C140.077 94.6316 142.864 83.5421 149.872 73.0983C138.572 74.2694 129.522 87.5716 131.668 99.7447C132.094 102.164 132.404 104.34 130.77 106.361C129.371 108.092 127.494 108.64 125.392 108.192C122.595 107.596 121.344 105.569 120.757 102.925C117.301 87.3528 125.595 70.7939 140.487 63.5148C142.25 62.6531 144.303 62.2802 145.894 60.4309C144.481 58.2127 141.931 57.6127 139.885 56.4533C131.624 51.7729 123.272 47.2543 114.952 42.678C114.077 42.1965 113.17 41.767 112.318 41.2473C110.045 39.8604 108.845 37.873 110.267 35.3931C111.608 33.0566 113.981 33.2975 116.016 34.354C123.851 38.4218 131.622 42.6116 139.405 46.779C143.355 48.8944 147.28 51.0592 152.115 53.6913C150.258 45.2123 150.548 37.5954 153.536 30.1997C157.617 20.0944 165.148 14.1603 175.638 11.9164C179.216 11.1512 182.537 11.9358 183.356 16.1681C184.134 20.1866 181.984 22.7155 178.091 23.1859C164.855 24.7848 158.488 43.1032 164.676 52.778C166.538 52.06 166.949 50.1046 167.917 48.722C176.523 36.4262 191.087 30.492 204.961 33.7179C208.757 34.6006 212.216 36.2079 215.147 38.7856C217.763 41.0872 219.254 43.9161 216.844 47.0893C214.529 50.1392 211.54 49.8855 208.416 47.9946C196.506 40.7859 181.811 45.4669 175.717 58.141C173.735 62.2631 174.457 64.2978 178.919 65.9175C199.763 73.4839 216.511 86.4558 228.826 104.963C262.46 155.505 244.55 223.649 190.433 251.155C188.207 252.286 185.926 253.309 183.316 254.528ZM84.4035 182.656C95.8345 179.561 107.334 179.211 118.996 181.356C135.558 184.401 150.579 191.597 165.836 198.222C179.347 204.089 193.083 208.855 208.245 207.73C221.327 206.76 228.613 200.592 228.405 189.484C205.026 199.42 183.018 193.501 161.293 184.004C152.45 180.138 143.624 176.196 134.606 172.776C109.856 163.389 85.9926 165.484 63.182 178.993C57.2157 182.527 56.7662 185.419 61.4488 191.455C68.5997 188.143 75.838 184.788 84.4035 182.656ZM101.596 152.786C101.627 147.792 101.058 142.707 101.803 137.822C103.869 124.267 99.1731 113.693 89.1188 104.831C85.3379 101.499 82.265 97.3635 78.6028 93.2983C70.9643 101.975 63.8502 110.091 56.6856 118.162C55.4482 119.556 55.4123 121.129 55.4142 122.817C55.4295 136.301 55.3917 149.786 55.435 163.27C55.4411 165.174 54.9034 167.301 56.892 168.945C57.4559 168.762 58.1223 168.657 58.6752 168.349C71.005 161.476 83.8975 156.362 98.1934 155.567C99.5871 155.489 100.797 155.01 101.596 152.786ZM114.598 205.656C126.457 207.048 137.557 211.012 148.505 215.548C161.868 221.085 174.75 227.885 188.957 231.231C198.566 233.494 207.5 228.775 211.494 219.063C193.436 221.125 177.088 215.722 161.068 208.753C153.435 205.433 145.815 202.074 138.107 198.935C115.418 189.696 92.8179 188.954 70.4521 200.039C68.1827 201.164 64.8377 202.044 67.1415 205.736C68.8961 208.547 69.4666 212.757 75.0425 210.59C87.4399 205.773 100.324 203.424 114.598 205.656ZM119.027 231.145C132.567 233.651 145.52 238.204 157.549 244.645C167.101 249.759 174.494 245.74 183.452 241.74C165.412 236.624 149.927 227.856 133.271 221.996C117.51 216.452 101.58 214.54 85.2534 219.228C83.2416 219.806 80.9824 219.981 79.5675 222.486C83.7847 226.225 86.6077 232.036 93.8132 230.667C101.952 229.121 110.069 229.853 119.027 231.145ZM140.131 250.623C140.568 250.55 141.201 250.732 141.098 249.935C141.082 249.812 140.889 249.665 140.746 249.611C129.76 245.382 118.639 241.741 105.988 241.695C116.931 247.378 128.063 249.604 140.131 250.623Z" fill="#D4DEE7"/>
<path d="M67.8715 133.754C67.7782 132.301 67.841 131.298 67.7139 130.319C67.16 126.051 68.851 124.498 73.2624 124.501C78.1087 124.505 78.191 127.336 77.974 130.667C77.8424 132.685 78.6094 135.624 75.8185 136.048C73.1925 136.446 69.8183 137.891 67.8715 133.754Z" fill="#D4DEE7"/>
<path d="M77.5154 121.391C74.8112 124.28 71.7465 123.651 69.0302 122.65C67.2575 121.997 67.6718 119.803 68.1777 118.193C69.2854 114.668 71.465 112.009 75.0895 110.946C77.1034 110.355 77.7833 111.962 77.8421 113.541C77.9343 116.014 77.7473 118.496 77.5154 121.391Z" fill="#D4DEE7"/>
<path d="M88.5743 135.564C80.4201 137.076 79.9049 136.681 79.6444 130.757C79.477 126.951 79.8391 124.507 84.7807 124.53C89.8622 124.553 89.4217 127.585 89.3301 130.783C89.2876 132.265 89.0532 133.743 88.5743 135.564Z" fill="#D4DEE7"/>
<path d="M79.7384 119.793C79.9124 116.574 79.0646 113.717 80.2939 111.043C85.1367 111.26 88.5017 114.164 89.165 118.731C89.4299 120.555 89.6845 122.86 87.1507 123.025C84.4433 123.2 80.9069 124.606 79.7384 119.793Z" fill="#D4DEE7"/>
</svg>
