<svg width="334" height="334" viewBox="0 0 334 334" fill="none" xmlns="http://www.w3.org/2000/svg">
<path d="M278.284 233.09C278.385 233.499 278.485 233.908 278.132 234.793C277.454 236.169 277.229 237.068 277.004 237.967C270.873 235.799 264.743 233.632 258.204 231.023C257.525 230.388 257.255 230.192 256.985 229.997C256.898 210.357 256.801 190.717 256.728 171.078C256.7 163.418 256.718 155.758 256.732 148.097C256.75 138.846 258.655 130.746 270.101 128.131C236.286 99.4029 203.12 71.2261 169.783 42.9044C136.501 71.1706 103.414 99.2705 69.778 127.837C80.8 130.5 81.8526 139.134 82.1784 148.602C82.0482 150.921 82.3586 152.574 82.6689 154.228C82.6689 154.228 82.7737 154.503 82.3214 154.874C81.5793 156.497 81.0395 157.75 81.0367 159.003C80.9861 182.297 80.9702 205.591 81.0704 228.884C81.0766 230.315 82.1053 231.743 82.6583 233.172C82.7404 234.957 82.8225 236.742 82.9442 239.387C75.4377 236.562 68.534 233.964 60.9972 231.128C60.9972 229.661 60.9973 227.885 60.9972 226.109C60.9958 202.792 61.001 179.474 60.9886 156.157C60.9853 149.793 60.3261 149.159 53.7646 149.016C52.2663 148.983 50.7668 149.009 49.2678 149.005C41.9858 148.986 38.0432 146.581 35.9127 140.862C33.7641 135.094 35.2428 128.658 39.969 124.459C45.071 119.927 50.3388 115.581 55.5418 111.163C93.4867 78.943 131.433 46.7249 169.759 14.184C174.813 18.4633 179.864 22.7278 184.902 27.007C222.465 58.9101 259.993 90.8537 297.623 122.678C302.856 127.104 305.021 132.402 303.925 139.012C302.92 145.079 298.302 148.863 292.052 148.995C289.223 149.055 286.373 149.158 283.563 148.902C279.567 148.539 278.53 150.146 278.555 154.066C278.714 179.047 278.612 204.03 278.143 229.637C277.888 231.204 278.086 232.147 278.284 233.09Z" fill="#D4DEE7"/>
<path d="M249.223 290.738C255.904 292.482 262.465 293.435 268.315 296.005C282.029 302.03 295.523 303.371 309.6 296.343C312.442 302.027 315.173 307.487 318.125 313.39C308.571 318.492 298.493 321.307 287.987 320.24C279.824 319.41 271.838 316.733 263.808 314.741C257.062 313.068 250.441 310.788 243.626 309.522C235.408 307.995 227.366 309.282 219.869 313.217C203.598 321.758 186.834 322.484 169.592 316.523C163.463 314.405 157.298 312.361 151.067 310.572C140.882 307.646 130.906 308.541 121.414 313.235C102.94 322.37 84.4732 322.694 65.5453 314.395C51.5274 308.248 37.0767 306.497 21.8908 313.265C19.1627 307.795 16.3879 302.232 13.52 296.481C24.9705 289.759 37.1595 288.589 49.499 290.606C58.1129 292.014 66.7539 294.3 74.8644 297.505C87.6313 302.55 99.6883 302.135 112.075 296.513C118.082 293.787 124.477 291.47 130.938 290.297C141.228 288.429 151.446 290.029 161.359 293.458C167.327 295.523 173.341 297.471 179.394 299.271C190.095 302.454 200.562 301.528 210.433 296.404C222.62 290.079 235.425 288.745 249.223 290.738Z" fill="#D4DEE7"/>
<path d="M261.027 250.877C266.704 252.976 271.952 255.09 277.288 256.951C288.322 260.799 298.957 258.946 309.676 254.156C312.445 259.697 315.181 265.171 318.13 271.073C310.818 275.14 303.067 277.187 294.949 277.974C284.073 279.028 273.929 276.238 263.752 272.62C256.316 269.977 248.437 268.363 240.627 267.051C233.224 265.808 226.108 267.684 219.411 271.159C203.624 279.35 187.305 280.144 170.52 274.561C163.426 272.202 156.33 269.791 149.103 267.908C139.754 265.472 130.547 266.474 121.872 270.794C102.898 280.242 83.9917 280.321 64.567 271.775C50.888 265.757 36.6693 264.396 21.8869 271.018C19.1897 265.587 16.4238 260.017 13.4073 253.943C20.5251 251.037 26.8624 247.546 34.8583 248.637C40.1444 249.358 45.8187 247.534 51.0235 248.479C59.1351 249.951 67.2627 252.144 74.9023 255.225C87.6453 260.364 99.8841 260.205 112.043 254.074C127.765 246.148 143.863 245.184 160.454 250.924C165.955 252.827 171.511 254.573 177.045 256.381C188.875 260.245 200.223 259.118 211.49 253.834C216.851 251.32 222.669 248.838 228.447 248.36C239.188 247.472 250.134 247.065 261.027 250.877Z" fill="#D4DEE7"/>
<path d="M208.001 236C201.639 240.091 194.579 240.378 187.346 239.283C187.191 238.515 187.047 238.248 186.903 237.98C186.821 216.295 186.739 194.611 186.96 172.379C187.34 171.724 187.5 171.546 187.479 171.521C187.315 171.325 187.115 171.16 186.927 170.985C186.652 170.663 186.378 170.341 185.884 169.474C184.725 169.153 183.785 169.376 182.846 169.6C174.921 169.665 166.996 169.731 158.44 169.337C156.193 169.201 154.577 169.523 152.961 169.846C152.909 170.046 152.858 170.246 152.441 170.797C152.241 171.759 152.406 172.371 152.572 172.982C152.647 173.747 152.722 174.511 152.332 175.788C151.577 178.027 151.045 179.752 151.036 181.48C150.968 195.428 151.075 209.377 150.908 223.323C150.885 225.251 149.653 227.165 148.981 229.086C143.18 229.086 137.379 229.086 130.828 229.086C130.828 202.605 130.828 176.26 131.137 149.356C131.709 148.617 131.891 148.374 131.991 148.07C157.278 148.08 182.565 148.09 207.822 148.631C207.919 149.454 208.046 149.746 208.173 150.038C208.282 159.971 208.464 169.904 208.486 179.837C208.527 197.577 208.472 215.317 208.063 233.638C207.779 234.812 207.89 235.406 208.001 236Z" fill="#D4DEE7"/>
<path d="M82.7435 232.716C82.1053 231.743 81.0766 230.315 81.0704 228.884C80.9702 205.591 80.9861 182.297 81.0367 159.003C81.0395 157.75 81.5793 156.497 82.2678 155.011C82.7205 180.604 82.7746 206.432 82.7435 232.716Z" fill="#D4DEE7"/>
<path d="M149.285 229.246C149.653 227.165 150.885 225.251 150.908 223.323C151.075 209.377 150.968 195.428 151.036 181.48C151.045 179.752 151.577 178.027 152.222 176.161C152.646 193.086 152.661 210.153 152.835 227.219C152.864 230.09 151.766 230.302 149.285 229.246Z" fill="#D4DEE7"/>
<path d="M82.7528 153.894C82.3586 152.574 82.0482 150.921 82.083 149.032C82.5643 150.385 82.7005 151.973 82.7528 153.894Z" fill="#D4DEE7"/>
<path d="M153.335 169.82C154.577 169.523 156.193 169.201 157.996 169.225C156.692 169.646 155.201 169.72 153.335 169.82Z" fill="#D4DEE7"/>
<path d="M152.669 172.659C152.406 172.371 152.241 171.759 152.323 171.084C152.635 171.459 152.7 171.897 152.669 172.659Z" fill="#D4DEE7"/>
<path d="M183.219 169.688C183.785 169.376 184.725 169.153 185.776 169.289C185.122 169.691 184.358 169.734 183.219 169.688Z" fill="#D4DEE7"/>
<path d="M278.41 232.7C278.086 232.147 277.888 231.204 277.988 230.077C278.37 230.698 278.453 231.504 278.41 232.7Z" fill="#D4DEE7"/>
<path d="M277.437 238.033C277.229 237.068 277.454 236.169 277.982 235.082C278.147 235.962 278.009 237.031 277.437 238.033Z" fill="#D4DEE7"/>
<path d="M208.197 235.69C207.89 235.406 207.779 234.812 207.917 234.083C208.241 234.426 208.317 234.903 208.197 235.69Z" fill="#D4DEE7"/>
<path d="M186.832 171.243C187.115 171.16 187.315 171.325 187.479 171.521C187.5 171.546 187.34 171.724 187.088 171.927C186.853 171.848 186.795 171.674 186.832 171.243Z" fill="#D4DEE7"/>
<path d="M256.963 230.306C257.255 230.192 257.525 230.388 257.903 230.813C257.654 230.901 257.297 230.758 256.963 230.306Z" fill="#D4DEE7"/>
<path d="M186.819 238.246C187.047 238.248 187.191 238.515 187.171 238.891C186.916 238.836 186.826 238.674 186.819 238.246Z" fill="#D4DEE7"/>
<path d="M208.269 149.767C208.046 149.746 207.919 149.454 207.98 149.059C208.233 149.136 208.299 149.316 208.269 149.767Z" fill="#D4DEE7"/>
<path d="M131.694 148.034C131.891 148.374 131.709 148.617 131.237 148.897C131.151 148.663 131.274 148.331 131.694 148.034Z" fill="#D4DEE7"/>
</svg>
