<svg version="1.1" id="Layer_1" xmlns="http://www.w3.org/2000/svg" xmlns:xlink="http://www.w3.org/1999/xlink" x="0px" y="0px"
	 width="100%" viewBox="0 0 272 272" enable-background="new 0 0 272 272" xml:space="preserve">
<path fill="#000000" opacity="1.000000" stroke="none" 
	d="
M183.315689,254.528076 
	C129.254318,276.326660 70.148361,249.278732 50.235447,196.878906 
	C46.188290,186.229034 43.772392,175.213974 43.927021,163.714645 
	C44.048012,154.716675 43.803520,145.711349 44.054859,136.718613 
	C44.171524,132.544571 42.692024,130.956802 38.566490,131.302917 
	C36.321365,131.491287 33.964138,131.662888 31.892326,130.873734 
	C31.308876,129.207672 32.254253,128.417648 33.017326,127.554703 
	C47.144558,111.578690 61.333965,95.656837 75.341560,79.576607 
	C77.846565,76.700943 79.478378,76.510605 82.003784,79.410049 
	C95.901413,95.366066 109.915710,111.220451 123.867004,127.129845 
	C124.610840,127.978088 125.146019,129.009293 125.945152,130.204910 
	C123.027649,132.147034 119.987267,131.194672 117.162979,131.288712 
	C114.430298,131.379700 113.104729,132.399246 113.284698,135.173233 
	C113.306221,135.504868 113.272575,135.839706 113.277679,136.172852 
	C113.369331,142.163315 111.613747,149.104263 114.068787,153.880798 
	C116.597557,158.800797 124.515762,157.340164 129.980698,158.988724 
	C146.476974,163.965012 161.618744,172.239090 177.738144,178.107498 
	C195.068573,184.416824 212.173386,185.120804 229.076279,176.655563 
	C231.960205,175.211258 233.594208,173.460236 233.912201,169.890442 
	C236.560913,140.156738 226.719696,115.253288 205.190384,94.874466 
	C195.858063,86.040840 184.760422,80.123482 172.671021,75.783089 
	C167.781219,74.027542 164.318832,75.317490 160.942963,78.509926 
	C153.170502,85.860046 151.309601,98.318275 156.617432,107.911858 
	C157.581406,109.654167 158.807129,111.252487 159.924042,112.909172 
	C161.882675,115.814384 161.893585,118.588959 159.053070,120.873001 
	C156.125977,123.226662 153.313034,122.284760 151.092651,119.796028 
	C147.738785,116.036812 145.216904,111.742950 143.750656,106.861435 
	C140.077240,94.631630 142.863785,83.542145 149.872162,73.098343 
	C138.572037,74.269455 129.521637,87.571632 131.667709,99.744713 
	C132.094208,102.163872 132.403687,104.340302 130.770462,106.361000 
	C129.371216,108.092201 127.493561,108.640327 125.392105,108.192139 
	C122.595367,107.595665 121.344086,105.569084 120.757248,102.924789 
	C117.301437,87.352814 125.595490,70.793961 140.486969,63.514847 
	C142.249969,62.653084 144.302704,62.280251 145.893600,60.430916 
	C144.481506,58.212719 141.931488,57.612667 139.885300,56.453327 
	C131.624466,51.772892 123.271935,47.254288 114.952103,42.678051 
	C114.076561,42.196465 113.170082,41.766975 112.318222,41.247307 
	C110.044762,39.860390 108.844864,37.873058 110.267509,35.393112 
	C111.607849,33.056633 113.981117,33.297531 116.015938,34.354019 
	C123.850555,38.421818 131.622040,42.611565 139.404678,46.778973 
	C143.355362,48.894459 147.279648,51.059238 152.115402,53.691357 
	C150.257919,45.212353 150.548416,37.595448 153.535690,30.199715 
	C157.617432,20.094433 165.147812,14.160359 175.638336,11.916387 
	C179.215683,11.151171 182.537216,11.935852 183.356140,16.168133 
	C184.133698,20.186657 181.984512,22.715551 178.091278,23.185863 
	C164.854828,24.784857 158.487930,43.103199 164.675842,52.777973 
	C166.538086,52.060024 166.949203,50.104649 167.916885,48.722038 
	C176.522812,36.426182 191.087158,30.492027 204.961105,33.717937 
	C208.757324,34.600624 212.216034,36.207916 215.146576,38.785641 
	C217.763214,41.087246 219.253799,43.916065 216.844437,47.089264 
	C214.528656,50.139229 211.540070,49.885483 208.416092,47.994621 
	C196.506363,40.785954 181.810989,45.466927 175.717255,58.141014 
	C173.735336,62.263073 174.457199,64.297859 178.918961,65.917465 
	C199.763306,73.483887 216.510956,86.455811 228.826370,104.962776 
	C262.459656,155.505157 244.550110,223.648804 190.432724,251.154541 
	C188.206772,252.285904 185.925613,253.308624 183.315689,254.528076 
M84.403549,182.655853 
	C95.834579,179.560562 107.333832,179.211227 118.996452,181.355759 
	C135.558380,184.401184 150.579071,191.597488 165.835663,198.222229 
	C179.346848,204.089096 193.083084,208.855087 208.245331,207.730301 
	C221.327057,206.759872 228.613434,200.592316 228.404572,189.484421 
	C205.026398,199.419937 183.017715,193.501068 161.293045,184.003555 
	C152.450195,180.137650 143.624100,176.196304 134.605865,172.775787 
	C109.856415,163.388596 85.992630,165.484009 63.182003,178.993164 
	C57.215748,182.526550 56.766224,185.418991 61.448887,191.455292 
	C68.599731,188.142960 75.838066,184.787628 84.403549,182.655853 
M101.595909,152.785675 
	C101.626648,147.791794 101.058113,142.706573 101.802780,137.821518 
	C103.868958,124.267159 99.173172,113.693146 89.118874,104.831451 
	C85.337997,101.499062 82.265007,97.363518 78.602852,93.298347 
	C70.964378,101.975136 63.850254,110.090836 56.685684,118.161766 
	C55.448208,119.555779 55.412327,121.128685 55.414242,122.816559 
	C55.429512,136.301010 55.391747,149.785568 55.435005,163.269897 
	C55.441116,165.174286 54.903416,167.300613 56.892048,168.944916 
	C57.455952,168.761703 58.122345,168.657227 58.675205,168.349060 
	C71.005020,161.476303 83.897537,156.362259 98.193481,155.566574 
	C99.587112,155.488998 100.796761,155.009979 101.595909,152.785675 
M114.598488,205.655991 
	C126.456734,207.047852 137.557510,211.011551 148.504791,215.547653 
	C161.868286,221.084930 174.750259,227.884979 188.957291,231.231003 
	C198.565857,233.494003 207.499664,228.774811 211.493652,219.062775 
	C193.435837,221.125351 177.087860,215.722275 161.068146,208.753265 
	C153.435013,205.432648 145.815277,202.073792 138.106888,198.935043 
	C115.418129,189.696487 92.817947,188.953568 70.452194,200.038971 
	C68.182732,201.163803 64.837715,202.044327 67.141563,205.735840 
	C68.896126,208.547241 69.466660,212.756760 75.042587,210.590271 
	C87.439949,205.773407 100.323578,203.423889 114.598488,205.655991 
M119.026756,231.145203 
	C132.566818,233.650665 145.519775,238.203995 157.548920,244.644608 
	C167.100906,249.758957 174.494324,245.740356 183.452118,241.740433 
	C165.412323,236.624039 149.927307,227.855896 133.270920,221.996414 
	C117.509880,216.451904 101.580513,214.540405 85.253479,219.228012 
	C83.241646,219.805618 80.982491,219.981445 79.567574,222.486298 
	C83.784775,226.224869 86.607735,232.036255 93.813286,230.667389 
	C101.951935,229.121246 110.068901,229.853027 119.026756,231.145203 
M140.130951,250.623047 
	C140.568451,250.549866 141.200790,250.732224 141.098236,249.934982 
	C141.082367,249.811646 140.888870,249.665451 140.746429,249.610626 
	C129.759781,245.382401 118.639130,241.741226 105.988441,241.694992 
	C116.930992,247.377609 128.063248,249.604218 140.130951,250.623047 
z"/>
<path fill="#000000" opacity="1.000000" stroke="none" 
	d="
M67.871460,133.753784 
	C67.778175,132.301041 67.840981,131.297760 67.713951,130.319122 
	C67.159996,126.051392 68.851036,124.497589 73.262428,124.501068 
	C78.108688,124.504898 78.191002,127.336327 77.973961,130.666611 
	C77.842384,132.685486 78.609451,135.624252 75.818512,136.047531 
	C73.192528,136.445786 69.818298,137.890564 67.871460,133.753784 
z"/>
<path fill="#000000" opacity="1.000000" stroke="none" 
	d="
M77.515411,121.390732 
	C74.811295,124.279884 71.746582,123.650780 69.030266,122.649902 
	C67.257553,121.996712 67.671875,119.802795 68.177765,118.192993 
	C69.285439,114.668243 71.465050,112.009155 75.089569,110.945518 
	C77.103493,110.354515 77.783333,111.962143 77.842186,113.541412 
	C77.934326,116.013550 77.747337,118.496094 77.515411,121.390732 
z"/>
<path fill="#000000" opacity="1.000000" stroke="none" 
	d="
M88.574280,135.564331 
	C80.420013,137.075531 79.904861,136.680939 79.644356,130.757126 
	C79.476959,126.950592 79.839088,124.507248 84.780647,124.529564 
	C89.862144,124.552513 89.421654,127.584595 89.330017,130.782883 
	C89.287537,132.265472 89.053200,133.742569 88.574280,135.564331 
z"/>
<path fill="#000000" opacity="1.000000" stroke="none" 
	d="
M79.738396,119.792549 
	C79.912415,116.573708 79.064613,113.716797 80.293900,111.042610 
	C85.136734,111.259544 88.501656,114.164322 89.164986,118.731194 
	C89.429893,120.555046 89.684494,122.860466 87.150650,123.024734 
	C84.443298,123.200249 80.906860,124.606339 79.738396,119.792549 
z"/>
</svg>